# xmcd CD database file
#
# Track frame offsets:
#	176
#	11447
#	25217
#	42352
#	54909
#	65455
#	79342
#	90442
#	100108
#	114215
#	127801
#	144283
#	154801
#
# Disc length: 2226 seconds
#
# Revision: 0
# Processed by: cddbd v1.5.2PL0 Copyright (c) Steve Scherf et al.
# Submitted via: CDex 1.70beta2
#
DISCID=9308b00d
DTITLE=Joe Moore - On A Highway To Your Dreams
DYEAR=1900
DGENRE=Country
TTITLE0=Truck Driving Man
TTITLE1=Highway To Your Dreams
TTITLE2=Mama Knows The Highway
TTITLE3=Folks Out On The Highway
TTITLE4=Harolds Super Service
TTITLE5=Pop-A-Top
TTITLE6=On The Road Again
TTITLE7=King Of The Road
TTITLE8=Desperado Of The Highway
TTITLE9=Movin' On
TTITLE10=Drivin' My Live Away
TTITLE11=Six Days On The Road
TTITLE12=Stone Cold Fingers
EXTD=
EXTT0=
EXTT1=
EXTT2=
EXTT3=
EXTT4=
EXTT5=
EXTT6=
EXTT7=
EXTT8=
EXTT9=
EXTT10=
EXTT11=
EXTT12=
PLAYORDER=
